{"title":"[+18] Ragini MMS 2011 Hindi DvdRip - Makintos13","uid":11864770,"size":399511467,"categoryP":"video","categoryS":"movies","magnet":"?xt=urn:btih:d21db1bf1980d6a5f4097b54abed2959c410e711&amp;dn=%5B%2B18%5D+Ragini+MMS+2011+Hindi+DvdRip+-+Makintos13&amp;tr=udp%3A%2F%2Ftracker.openbittorrent.com%3A80&amp;tr=udp%3A%2F%2Fopen.demonii.com%3A1337&amp;tr=udp%3A%2F%2Ftracker.coppersurfer.tk%3A6969&amp;tr=udp%3A%2F%2Fexodus.desync.com%3A6969","seeders":1,"leechers":0,"uploader":"makintos13","files":1,"time":1430320930,"description":" &lt;a href=&quot;http://imgmak.com/ma&quot; rel=&quot;nofollow&quot; target=&quot;_NEW&quot;&gt;http://imgmak.com/ma&lt;/a&gt;\n &lt;a href=&quot;\nhttp://imgmak.com/mp&quot; rel=&quot;nofollow&quot; target=&quot;_NEW&quot;&gt;\nhttp://imgmak.com/mp&lt;/a&gt;\n &lt;a href=&quot;\nhttp://imgmak.com/mR&quot; rel=&quot;nofollow&quot; target=&quot;_NEW&quot;&gt;\nhttp://imgmak.com/mR&lt;/a&gt;\n &lt;a href=&quot;\nhttp://imgmak.com/mb&quot; rel=&quot;nofollow&quot; target=&quot;_NEW&quot;&gt;\nhttp://imgmak.com/mb&lt;/a&gt;\n\n\neneral\n\nFormat : MPEG-4\nFormat profile : Base Media / Version 2\nCodec ID : mp42\nFile size : 381 MiB\nDuration : 1h 33mn\nOverall bit rate mode : Variable\nOverall bit rate : 569 Kbps\n\nVideo\nID : 1\nFormat : AVC\nFormat/Info : Advanced Video Codec\nFormat profile : Main@L4\nFormat settings, CABAC : Yes\nFormat settings, ReFrames : 4 frames\nCodec ID : avc1\nCodec ID/Info : Advanced Video Coding\nDuration : 1h 33mn\nBit rate : 402 Kbps\nWidth : 720 pixels\nHeight : 304 pixels\nDisplay aspect ratio : 2.35:1\nFrame rate mode : Variable\nFrame rate : 23.976 fps\nMinimum frame rate : 23.810 fps\nMaximum frame rate : 24.390 fps\nColor space : YUV\nChroma subsampling : 4:2:0\nBit depth : 8 bits\nScan type : Progressive\nBits/(Pixel*Frame) : 0.077\nStream size : 269 MiB (71%)\nColor range : Limited\nColor primaries : BT.601 NTSC\nTransfer characteristics : BT.709\nMatrix coefficients : BT.601\n\nAudio\nID : 2\nFormat : AAC\nFormat/Info : Advanced Audio Codec\nFormat profile : LC\nCodec ID : 40\nDuration : 1h 33mn\nBit rate mode : Variable\nBit rate : 160 Kbps\nChannel(s) : 2 channels\nChannel positions : Front: L R\nSampling rate : 48.0 KHz\nCompression mode : Lossy\nStream size : 107 MiB (28%)\nTitle : Stereo / Stereo\nLanguage : Hindi\n\nMenu\nID : 3\nCodec ID : text\nDuration : 1h 33mn\nLanguage : English\n00:00:00.000 : Chapter 1\n00:02:37.573 : Chapter 2\n00:07:28.531 : Chapter 3\n00:11:45.496 : Chapter 4\n00:20:08.915 : Chapter 5\n00:33:45.397 : Chapter 6\n00:42:52.402 : Chapter 7\n00:48:39.499 : Chapter 8\n00:52:49.749 : Chapter 9\n01:11:21.777 : Chapter 10\n01:17:34.941 : Chapter 11\n01:27:38.794 : Chapter 12\nBit rate mode : VBR","torrent":{"xt":"urn:btih:d21db1bf1980d6a5f4097b54abed2959c410e711","amp;dn":"%5B%2B18%5D+Ragini+MMS+2011+Hindi+DvdRip+-+Makintos13","amp;tr":["udp%3A%2F%2Ftracker.openbittorrent.com%3A80","udp%3A%2F%2Fopen.demonii.com%3A1337","udp%3A%2F%2Ftracker.coppersurfer.tk%3A6969","udp%3A%2F%2Fexodus.desync.com%3A6969"],"infoHash":"d21db1bf1980d6a5f4097b54abed2959c410e711","infoHashBuffer":{"type":"Buffer","data":[210,29,177,191,25,128,214,165,244,9,123,84,171,237,41,89,196,16,231,17]},"announce":[],"urlList":[]}}